# AST/ASF file generated using VICON BodyLanguage
# -----------------------------------------------
:version 1.10
:name VICON
:units
  mass 1.0
  length 0.45
  angle deg
:documentation
   .ast/.asf automatically generated from VICON data using
   VICON BodyBuilder and BodyLanguage model FoxedUp or BRILLIANT.MOD
:root
   order TX TY TZ RX RY RZ
   axis XYZ
   position 0 0 0  
   orientation 0 0 0 
:bonedata
  begin
     id 1 
     name lhipjoint
     direction 0.611804 -0.747784 0.257906 
     length 2.29243 
     axis 0 0 0  XYZ
  end
  begin
     id 2 
     name lfemur
     direction 0.34202 -0.939693 0  
     length 7.31159  
     axis 0 0 20  XYZ
    dof rx ry rz
    limits (-160.0 20.0)
           (-70.0 70.0)
           (-60.0 70.0)
  end
  begin
     id 3 
     name ltibia
     direction 0.34202 -0.939693 0   
     length 7.33391   
     axis 0 0 20   XYZ
    dof rx
    limits (-10.0 170.0)
  end
  begin
     id 4 
     name lfoot
     direction 0.122263 -0.335914 0.933924   
     length 1.76083   
     axis -90 7.62852e-016 20   XYZ
    dof rx rz
    limits (-45.0 90.0)
           (-70.0 20.0)
  end
  begin
     id 5 
     name ltoes
     direction 1.53533e-011 -4.2177e-011 1   
     length 0.879206   
     axis -90 7.62852e-016 20   XYZ
    dof rx
    limits (-90.0 20.0)
  end
  begin
     id 6 
     name rhipjoint
     direction -0.646469 -0.721248 0.248754   
     length 2.37677  
     axis 0 0 0  XYZ 
  end
  begin
     id 7 
     name rfemur
     direction -0.34202 -0.939693 0   
     length 7.18623   
     axis 0 0 -20   XYZ
    dof rx ry rz
    limits (-160.0 20.0)
           (-70.0 70.0)
           (-70.0 60.0)
  end
  begin
     id 8 
     name rtibia
     direction -0.34202 -0.939693 0   
     length 7.36567   
     axis 0 0 -20   XYZ
    dof rx
    limits (-10.0 170.0)
 end
 begin
     id 9 
     name rfoot
     direction -0.126681 -0.348054 0.928876   
     length 1.71902  
     axis -90 -7.62852e-016 -20   XYZ
    dof rx rz
    limits (-45.0 90.0)
           (-20.0 70.0)
  end
  begin
     id 10 
     name rtoes
     direction -1.53551e-011 -4.21898e-011 1   
     length 0.857792   
     axis -90 -7.62852e-016 -20   XYZ
    dof rx
    limits (-90.0 20.0)
  end
  begin
     id 11 
     name lowerback
     direction 0.0106509 0.999778 0.0181844   
     length 2.07668   
     axis 0 0 0   XYZ
    dof rx ry rz
    limits (-20.0 45.0)
           (-30.0 30.0)
           (-30.0 30.0)
  end
  begin
     id 12 
     name upperback
     direction -0.00456018 0.999989 -0.000590935   
     length 2.08011   
     axis 0 0 0   XYZ
    dof rx ry rz
    limits (-20.0 45.0)
           (-30.0 30.0)
           (-30.0 30.0)
  end
  begin
     id 13 
     name thorax
     direction -0.00910382 0.999916 -0.00923765   
     length 2.07397   
     axis 0 0 0   XYZ
    dof rx ry rz
    limits (-20.0 45.0)
           (-30.0 30.0)
           (-30.0 30.0)
  end
  begin
     id 14 
     name lowerneck
     direction 0.00171967 0.99778 0.0665733   
     length 1.67556   
     axis 0 0 0   XYZ
    dof rx ry rz
    limits (-20.0 45.0)
           (-30.0 30.0)
           (-30.0 30.0)
  end
  begin
     id 15 
     name upperneck
     direction -0.0143166 0.991302 -0.130828   
     length 1.68462   
     axis 0 0 0   XYZ
    dof rx ry rz
    limits (-20.0 45.0)
           (-30.0 30.0)
           (-30.0 30.0)
  end
  begin
     id 16
     name head
     direction -0.00606378 0.998665 -0.0512995  
     length 1.69269  
     axis 0 0 0   XYZ
    dof rx ry rz
    limits (-20.0 45.0)
           (-30.0 30.0)
           (-30.0 30.0)
  end
  begin
     id 17 
     name lclavicle
     direction 0.9638 0.179341 0.197297  
     length 4.12888  
     axis 0 0 0   XYZ
    dof ry rz
    limits (-20.0 10.0)
           (0.0 20.0)
  end
  begin
     id 18 
     name lhumerus
     direction 1 -4.48972e-011 -2.47351e-027   
     length 5.01834   
     axis -180 -30 -90   XYZ
    dof rx ry rz
    limits (-60.0 90.0)
           (-90.0 90.0)
           (-90.0 90.0)
  end
  begin
     id 19
     name lradius
     direction 1 -4.48965e-011 1.51591e-026   
     length 3.4869   
     axis -180 -30 -90   XYZ
    dof rx
    limits (-10.0 170.0)
  end
  begin
     id 20
     name lwrist
     direction 1 -4.48957e-011 2.70032e-026   
     length 1.74345   
     axis -1.81515e-014 90 90   XYZ
    dof ry
    limits (-180.0 0.0)
 end
  begin
     id 21 
     name lhand
     direction 1 -4.48951e-011 5.40064e-026   
     length 0.76799   
     axis -3.44607e-014 90 90   XYZ
    dof rx rz
    limits (-90.0 90.0)
           (-45.0 45.0)
  end
  begin
     id 22 
     name lfingers
     direction 1 -4.48971e-011 1.08013e-025   
     length 0.619174   
     axis -6.89214e-014 90 90   XYZ
    dof rx
    limits (0.0 90.0)
  end
  begin
     id 23
     name lthumb
     direction 0.707107 -6.34931e-011 0.707107   
     length 0.889013   
     axis -90 45 2.85299e-015   XYZ
    dof rx rz
    limits (-45.0 45.0)
           (-45.0 45.0)
  end
  begin
     id 24 
     name rclavicle
     direction -0.961409 0.252588 0.109054   
     length 4.04305  
     axis 0 0 0   XYZ 
    dof ry rz
    limits (-10.0 20.0)
           (-20.0 0.0)
  end
  begin
     id 25 
     name rhumerus
     direction -1 -4.4897e-011 1.33872e-017  
     length 4.70164   
     axis -180 30 90   XYZ
    dof rx ry rz
    limits (-90.0 60.0)
           (-90.0 90.0)
           (-90.0 90.0)
  end
  begin
     id 26 
     name rradius
     direction -1 -4.48954e-011 1.83844e-026   
     length 3.49911   
     axis -180 30 90   XYZ
    dof rx
    limits (-10.0 170.0)
  end
  begin
     id 27 
     name rwrist
     direction -1 -4.49008e-011 2.70032e-026   
     length 1.74955   
     axis -1.81515e-014 -90 -90   XYZ
    dof ry
    limits (-180.0 0.0)
  end
  begin
     id 28
     name rhand
     direction -1 -4.48916e-011 5.40064e-026   
     length 0.739335   
     axis -3.44607e-014 -90 -90   XYZ
    dof rx rz
    limits (-90.0 90.0)
           (-45.0 45.0)
  end
  begin
     id 29
     name rfingers
     direction -1 -4.48987e-011 1.08013e-025   
     length 0.596071   
     axis -6.89214e-014 -90 -90   XYZ
    dof rx
    limits (0.0 90.0)
  end
  begin
     id 30
     name rthumb
     direction -0.707107 -6.34935e-011 0.707107   
     length 0.855843   
     axis -90 -45 -2.85299e-015   XYZ
    dof rx rz
    limits (-45.0 45.0)
           (-45.0 45.0)
  end
:hierarchy
  begin
    root lhipjoint rhipjoint lowerback
    lhipjoint lfemur
    lfemur ltibia
    ltibia lfoot
    lfoot ltoes
    rhipjoint rfemur
    rfemur rtibia
    rtibia rfoot
    rfoot rtoes
    lowerback upperback
    upperback thorax
    thorax lowerneck lclavicle rclavicle
    lowerneck upperneck
    upperneck head
    lclavicle lhumerus
    lhumerus lradius
    lradius lwrist
    lwrist lhand lthumb
    lhand lfingers
    rclavicle rhumerus
    rhumerus rradius
    rradius rwrist
    rwrist rhand rthumb
    rhand rfingers
  end

#!OML:ASF I:\salsa\salsa 7_09\Patient 1\Session 1\dancermale.ASF
:FULLY-SPECIFIED
:DEGREES
351
root 10.3051 17.076 -0.687044 194.015 98.9063 190.356
lowerback 0.924532 1.48968 0.206282
upperback 1.00828 1.99208 -0.172343
thorax 0.526939 0.999829 -0.300402
lowerneck -5.44399 -0.841827 2.76505
upperneck 11.6386 -0.395472 -7.44952
head 4.3403 -0.433289 -2.76344
rclavicle -2.08724e-015 -3.18055e-015
rhumerus -45.0093 9.22049 -99.7392
rradius 66.7799
rwrist -4.93538
rhand -46.5144 7.19274
rfingers 7.12502
rthumb -19.2404 -21.8755
lclavicle -2.08724e-015 -3.18055e-015
lhumerus -16.6838 -15.9293 84.6849
lradius 64.8443
lwrist 38.9985
lhand -16.313 45.8982
lfingers 7.12502
lthumb 9.89821 795.646
rfemur -20.0361 -3.57293 19.0286
rtibia 45.5185
rfoot -23.6289 -9.65324
rtoes -4.39242
lfemur -28.3821 5.47252 -20.9897
ltibia 36.4463
lfoot -8.39376 2.557
ltoes -11.4926
352
root 10.2757 17.0624 -0.720687 197.677 98.461 193.883
lowerback 0.949765 1.46315 0.178056
upperback 0.925988 1.95718 -0.428177
thorax 0.436364 0.98284 -0.548082
lowerneck -5.55366 -0.885807 2.58152
upperneck 11.6343 -0.498251 -6.98925
head 4.3554 -0.470744 -2.59674
rclavicle -6.08778e-015 3.97569e-016
rhumerus -44.7317 8.25868 -98.801
rradius 66.3996
rwrist -4.28816
rhand -47.0787 7.92468
rfingers 7.12502
rthumb -19.783 -21.0886
lclavicle -6.08778e-015 3.97569e-016
lhumerus -15.6443 -14.2683 85.7971
lradius 65.1016
lwrist 39.5741
lhand -16.7289 46.0775
lfingers 7.12502
lthumb 9.49695 795.843
rfemur -21.4785 -4.92745 18.5331
rtibia 48.2522
rfoot -23.9199 -10.5953
rtoes -5.50386
lfemur -28.0778 5.67312 -21.676
ltibia 35.2339
lfoot -8.85963 1.87601
ltoes -12.187
353
root 10.2355 17.0488 -0.746847 201.38 97.7625 197.492
lowerback 1.07629 1.35897 0.224458
upperback 0.769967 1.81815 -0.632588
thorax 0.212427 0.913285 -0.788214
lowerneck -5.70079 -0.940837 2.24563
upperneck 11.9352 -0.604724 -6.32701
head 4.47209 -0.50729 -2.34645
rclavicle 3.2054e-014 7.7526e-015
rhumerus -44.6735 7.11643 -97.7668
rradius 66.233
rwrist -3.71684
rhand -47.8853 7.0724
rfingers 7.12502
rthumb -20.5582 -21.859
lclavicle 3.2054e-014 7.7526e-015
lhumerus -14.5056 -12.3512 87.097
lradius 65.0892
lwrist 40.0404
lhand -17.348 46.3663
lfingers 7.12502
lthumb 8.89954 796.159
rfemur -22.6491 -6.17577 18.245
rtibia 50.9999
rfoot -23.8792 -11.4205
rtoes -5.04332
lfemur -28.031 5.81887 -22.2381
ltibia 34.4625
lfoot -9.26089 1.13285
ltoes -11.1197
354
root 10.1854 17.0333 -0.764296 205.888 96.9563 202.019
lowerback 1.29487 1.2401 0.267102
upperback 0.657929 1.65962 -0.817252
thorax -0.0203464 0.833772 -1.00671
lowerneck -5.93116 -1.00294 1.80018
upperneck 12.3374 -0.71882 -5.5618
head 4.63604 -0.546874 -2.04846
rclavicle -6.01324e-015 -4.17448e-015
rhumerus -44.6515 5.89851 -96.5834
rradius 66.2851
rwrist -3.53937
rhand -48.3509 4.36933
rfingers 7.12502
rthumb -21.0056 -24.5131
lclavicle -6.01324e-015 -4.17448e-015
lhumerus -13.0582 -10.3607 88.5934
lradius 64.6767
lwrist 40.3406
lhand -18.4618 46.5978
lfingers 7.12502
lthumb 7.82463 796.433
rfemur -23.5687 -7.15986 18.0201
rtibia 53.8995
rfoot -23.7305 -11.8218
rtoes -3.13668
lfemur -27.8751 5.75676 -22.7527
ltibia 33.634
lfoot -9.49011 0.466307
ltoes -10.4404
355
root 10.125 17.0165 -0.777784 211.938 96.2733 208.123
lowerback 1.49915 1.17462 0.221239
upperback 0.604548 1.57172 -1.02623
thorax -0.186419 0.789864 -1.19938
lowerneck -6.04357 -1.10685 1.75678
upperneck 12.4086 -0.88997 -5.28154
head 4.67233 -0.619376 -1.96582
rclavicle -3.47873e-016 3.37934e-015
rhumerus -44.6015 4.58651 -95.2364
rradius 66.466
rwrist -3.56946
rhand -48.6343 4.72964
rfingers 7.12502
rthumb -21.2777 -24.1224
lclavicle -3.47873e-016 3.37934e-015
lhumerus -11.3345 -8.49432 90.246
lradius 63.9005
lwrist 40.1508
lhand -19.6054 47.0785
lfingers 7.12502
lthumb 6.72079 796.952
rfemur -24.4851 -7.8995 17.7156
rtibia 57.1735
rfoot -23.4915 -11.848
rtoes -0.856595
lfemur -27.6699 5.7294 -23.3682
ltibia 32.7334
lfoot -9.56883 -0.212221
ltoes -10.9593
356
root 10.0568 17.0011 -0.789923 219.417 95.699 215.629
lowerback 1.68402 1.13017 0.212476
upperback 0.521613 1.51162 -1.27653
thorax -0.369604 0.759787 -1.45522
lowerneck -5.95575 -1.27889 1.84648
upperneck 12.2321 -1.14879 -5.23048
head 4.59341 -0.737821 -1.97654
rclavicle -4.9075e-015 7.35503e-015
rhumerus -44.7426 3.27799 -93.8696
rradius 66.8273
rwrist -3.53534
rhand -49.18 8.44475
rfingers 7.12502
rthumb -21.8019 -20.3472
lclavicle -4.9075e-015 7.35503e-015
lhumerus -9.56978 -6.82461 91.9336
lradius 62.9434
lwrist 39.4683
lhand -20.0638 47.8758
lfingers 7.12502
lthumb 6.27822 797.763
rfemur -25.344 -8.40699 17.3844
rtibia 60.5159
rfoot -22.8808 -11.6865
rtoes 1.98585
lfemur -27.6343 5.74826 -24.0276
ltibia 32.1029
lfoot -9.37882 -0.952056
ltoes -10.6847
357
root 9.97865 16.9853 -0.795147 226.268 95.039 222.496
lowerback 1.90012 1.0733 0.463116
upperback 0.420398 1.43844 -1.45513
thorax -0.585417 0.721977 -1.78357
lowerneck -5.86815 -1.46727 1.73679
upperneck 12.0807 -1.42955 -4.99458
head 4.52509 -0.865833 -1.89841
rclavicle 1.14053e-014 -7.95139e-016
rhumerus -45.0141 2.20514 -92.5772
rradius 67.3729
rwrist -3.86227
rhand -49.6375 10.8906
rfingers 7.12502
rthumb -22.2411 -17.8497
lclavicle 1.14053e-014 -7.95139e-016
lhumerus -7.93616 -5.53372 93.5789
lradius 62.0195
lwrist 38.9229
lhand -20.2214 48.5359
lfingers 7.12502
lthumb 6.12604 798.427
rfemur -25.9514 -8.52467 17.4021
rtibia 63.4919
rfoot -21.9576 -11.6757
rtoes 5.27804
lfemur -27.7611 5.69389 -24.3207
ltibia 31.6979
lfoot -9.20316 -1.64412
ltoes -10.4118
358
root 9.89497 16.9699 -0.787214 235.703 94.4091 232.021
lowerback 2.11848 0.972134 0.570185
upperback 0.354206 1.30461 -1.57983
thorax -0.774802 0.653672 -1.9739
lowerneck -5.89691 -1.60109 1.39031
upperneck 12.0846 -1.64314 -4.45185
head 4.5328 -0.956298 -1.68612
rclavicle 1.63997e-014 -1.5207e-014
rhumerus -45.348 1.35096 -91.298
rradius 68.0625
rwrist -4.41484
rhand -50.2024 11.6794
rfingers 7.12502
rthumb -22.7834 -16.9952
lclavicle 1.63997e-014 -1.5207e-014
lhumerus -6.64251 -4.79347 95.1111
lradius 61.2015
lwrist 38.7423
lhand -20.6193 48.94
lfingers 7.12502
lthumb 5.74187 798.842
rfemur -26.1866 -8.48284 17.4491
rtibia 65.984
rfoot -20.8319 -11.697
rtoes 8.77505
lfemur -27.8405 5.45236 -24.5112
ltibia 31.326
lfoot -9.07947 -2.31717
ltoes -10.5162
359
root 9.80396 16.9512 -0.774352 245.583 94.2336 241.868
lowerback 2.17151 0.952966 0.433278
upperback 0.264997 1.27495 -1.73918
thorax -0.896397 0.638499 -2.0621
lowerneck -5.92005 -1.71353 1.05534
upperneck 12.0821 -1.81231 -4.03481
head 4.53914 -1.03101 -1.51221
rclavicle -2.85753e-016 -2.22639e-014
rhumerus -45.6815 0.591866 -89.8672
rradius 68.7877
rwrist -4.53479
rhand -50.7212 12.1168
rfingers 7.12502
rthumb -23.2812 -16.4957
lclavicle -2.85753e-016 -2.22639e-014
lhumerus -5.64768 -4.42587 96.5075
lradius 60.3526
lwrist 38.5469
lhand -20.9007 49.5227
lfingers 7.12502
lthumb 5.47026 799.432
rfemur -26.5095 -8.11931 17.2787
rtibia 68.1959
rfoot -19.5365 -11.5395
rtoes 11.9431
lfemur -28.0824 5.1954 -24.872
ltibia 30.9473
lfoot -8.74326 -2.83842
ltoes -10.1788
360
root 9.70577 16.9377 -0.757221 254.407 94.0647 250.71
lowerback 2.24348 0.917352 0.438685
upperback 0.218643 1.22676 -1.84037
thorax -0.983771 0.613886 -2.16977
lowerneck -5.95028 -1.79996 1.02158
upperneck 12.0417 -1.93186 -4.001
head 4.52945 -1.0897 -1.50273
rclavicle -4.03781e-015 -1.2921e-015
rhumerus -45.8689 -0.0773631 -88.2491
rradius 69.4194
rwrist -3.9449
rhand -50.8085 12.0598
rfingers 7.12502
rthumb -23.3649 -16.542
lclavicle -4.03781e-015 -1.2921e-015
lhumerus -4.86982 -4.28749 97.6882
lradius 59.4676
lwrist 38.2423
lhand -20.9334 50.1139
lfingers 7.12502
lthumb 5.43861 800.024
rfemur -26.5583 -7.50666 17.2634
rtibia 69.8761
rfoot -18.1841 -11.3031
rtoes 14.8283
lfemur -28.3284 5.05353 -25.0118
ltibia 30.5927
lfoot -8.50831 -3.48743
ltoes -10.7319
361
root 9.59981 16.9234 -0.737299 262.531 93.8798 258.7
lowerback 2.13202 0.822418 0.511184
upperback 0.139797 1.10089 -1.84422
thorax -1.00581 0.54977 -2.20971
lowerneck -6.16493 -1.78912 0.554943
upperneck 12.1869 -1.90637 -3.64118
head 4.62041 -1.07995 -1.31819
rclavicle -1.65178e-014 3.97569e-015
rhumerus -45.945 -0.483348 -86.5263
rradius 70.0235
rwrist -2.78431
rhand -50.6736 11.2294
rfingers 7.12502
rthumb -23.2355 -17.3888
lclavicle -1.65178e-014 3.97569e-015
lhumerus -4.3886 -4.52389 98.5004
lradius 58.7475
lwrist 38.3455
lhand -21.2348 50.3334
lfingers 7.12502
lthumb 5.14767 800.251
rfemur -26.6084 -6.66201 17.3763
rtibia 70.9896
rfoot -16.703 -10.8626
rtoes 17.9809
lfemur -28.8291 5.11797 -25.024
ltibia 30.3195
lfoot -8.27568 -4.23345
ltoes -11.6015
362
root 9.49125 16.9097 -0.71168 270.392 93.7894 266.458
lowerback 1.93259 0.68556 0.531285
upperback 0.117296 0.91907 -1.80997
thorax -0.924973 0.458969 -2.17783
lowerneck -6.45149 -1.69077 -0.0248235
upperneck 12.3397 -1.74706 -3.28561
head 4.72936 -1.01043 -1.10928
rclavicle 4.40432e-015 1.26228e-014
rhumerus -45.8528 -0.536638 -84.8974
rradius 70.6189
rwrist -2.02473
rhand -50.5142 10.6594
rfingers 7.12502
rthumb -23.0825 -17.9781
lclavicle 4.40432e-015 1.26228e-014
lhumerus -4.20832 -4.7423 99.1
lradius 58.4222
lwrist 38.6461
lhand -21.5807 50.503
lfingers 7.12502
lthumb 4.81362 800.428
rfemur -26.3665 -5.60246 17.4158
rtibia 71.2717
rfoot -14.9222 -10.3645
rtoes 20.2276
lfemur -29.2417 5.18004 -25.0262
ltibia 29.9794
lfoot -7.79717 -4.89361
ltoes -11.7509
363
root 9.37326 16.9024 -0.684324 277.424 93.9551 273.37
lowerback 1.72781 0.569994 0.427853
upperback 0.105675 0.764053 -1.88968
thorax -0.828839 0.382794 -2.19508
lowerneck -6.55562 -1.58352 0.110124
upperneck 12.3353 -1.58843 -3.50713
head 4.74502 -0.940679 -1.19145
rclavicle 3.47873e-015 3.08116e-015
rhumerus -45.5035 -1.04298 -82.932
rradius 71.184
rwrist 1.29945
rhand -49.2764 6.63385
rfingers 7.12502
rthumb -21.8944 -22.1474
lclavicle 3.47873e-015 3.08116e-015
lhumerus -4.40849 -4.59856 99.6976
lradius 58.5085
lwrist 38.5891
lhand -21.5197 50.739
lfingers 7.12502
lthumb 4.87253 800.663
rfemur -25.9125 -4.42863 17.1602
rtibia 70.6975
rfoot -12.802 -9.97948
rtoes 20.6375
lfemur -29.5713 5.00832 -25.2228
ltibia 29.511
lfoot -7.37491 -5.45753
ltoes -11.9035
364
root 9.24116 16.8985 -0.659673 282.623 94.2813 278.375
lowerback 1.59322 0.48695 0.356656
upperback 0.0152319 0.652568 -2.11578
thorax -0.848859 0.327548 -2.38416
lowerneck -6.52523 -1.52154 0.34141
upperneck 12.3169 -1.51835 -3.61526
head 4.7323 -0.90189 -1.25812
rclavicle -1.26415e-014 3.5334e-014
rhumerus -45.2158 -1.22405 -81.5324
rradius 71.6632
rwrist 2.65577
rhand -48.6093 5.2819
rfingers 7.12502
rthumb -21.2538 -23.5728
lclavicle -1.26415e-014 3.5334e-014
lhumerus -4.90207 -4.67985 100.028
lradius 58.6598
lwrist 38.7657
lhand -21.5052 50.9459
lfingers 7.12502
lthumb 4.88651 800.87
rfemur -25.3464 -3.23202 16.708
rtibia 69.4056
rfoot -9.82472 -9.23912
rtoes 26.8967
lfemur -29.8957 4.62965 -25.5659
ltibia 28.8593
lfoot -6.8487 -5.81097
ltoes -12.1083
